<?xml version="1.0" encoding="utf-8"?>
<!-- Generator: Adobe Illustrator 26.5.0, SVG Export Plug-In . SVG Version: 6.00 Build 0)  -->
<svg version="1.1" id="Camada_1" xmlns="http://www.w3.org/2000/svg" xmlns:xlink="http://www.w3.org/1999/xlink" x="0px" y="0px"
	 viewBox="0 0 2772.08 1328.31" style="enable-background:new 0 0 2772.08 1328.31;" xml:space="preserve">
<style type="text/css">
	.st0{fill:url(#SVGID_1_);}
	.st1{fill:#2D2D2D;}
	.st2{fill:#E6A900;}
</style>
<g>
	<linearGradient id="SVGID_1_" gradientUnits="userSpaceOnUse" x1="893.8314" y1="419.6062" x2="1990.8406" y2="419.6062">
		<stop  offset="0" style="stop-color:#D47A00"/>
		<stop  offset="0.489" style="stop-color:#EBB800"/>
		<stop  offset="1" style="stop-color:#D47A00"/>
	</linearGradient>
	<path class="st0" d="M1842.31,179.38c6.05,0,11.31,0,17.04,0c0,2.2,0,4.15,0,6.11c0,52.63,0.03,111.96-0.06,164.59
		c0,0,0.67,0.4,4,2.34c14.03,8.2,28.16,16.23,42.91,24.7c0-21.98,0-43.19,0-64.75c11.81,0,23.19,0,35.17,0c0,3,0,5.95,0,8.9
		c-0.01,23.15,0.08,53.3-0.12,76.45c0,0,1.9,1.05,6.11,3.4c11.62,6.5,23.13,13.21,34.67,19.85c5.19,2.99,6.28,3.81,6.28,3.81
		c-7.56,13.66-10.9,19.6-10.9,19.6c-6.89-3.97-36.08-21.16-36.08-21.16c-0.11,2.24-0.25,4.79-0.26,6.35
		c-0.04,9.99,0.13,24.99-0.14,34.97c0,0,1.39,1.1,4.66,2.93c12.35,6.91,32.96,18.3,45.26,25.3c0,0-8.26,14.17-12.06,20.48
		c0,0-1.05-0.74-13.18-7.73c-8.16-4.71-16.36-9.35-25.28-14.44c0,2.88,0,4.83,0,6.77c0.05,92.6,0.1,185.19,0.15,277.79
		c0.01,12.98-0.17,13.41-0.17,13.41c-235.25-0.07-483.88-0.15-719.13-0.18c-88.13-0.01-189.35,0.12-277.48,0.18
		c0,0-0.06-0.65-0.05-13.34c0.05-89.26,0.08-178.53,0.12-267.8c0-5.45,0-10.9,0-17.67c-11.26,6.5-21.04,12.09-30.75,17.77
		c-6.5,3.81-7.06,4.11-7.06,4.11l-12.14-19.44c10.06-5.89,33.35-19.6,43.54-25.26c4.44-2.47,6.19-3.85,6.19-3.85
		c-0.34-10.76-0.1-28.54-0.1-40.41c-7.95,4.52-15.1,8.56-22.23,12.65c-2.89,1.66-5.7,3.44-8.57,5.13c-3.19,1.88-4.53,2.78-4.53,2.78
		l-11.77-20.11c0,0,0.01-0.06,13.31-7.69c9.1-5.22,18.14-10.54,27.34-15.57c5.09-2.78,6.55-3.79,6.55-3.79
		c-0.2-23.98-0.31-56.6-0.45-80.58c-0.01-0.98,0-1.96,0-3.39c11.41,0,22.6,0,34.28,0c0,21.1,0,42,0,63.93
		c2.18-1.14,3.59-1.82,4.95-2.6c12.7-7.3,25.33-14.73,38.13-21.85c3.83-2.13,5.28-3.12,5.28-3.12
		c-0.13-67.12-0.09-140.23-0.09-207.35c0-1.97,0-3.93,0-6.17c43.32,0,86.24,0,129.56,0c0,41.25,0,82.6,0,124.51
		c-5.62,0-11.35,0-17.33,0c0,154.37,0,308.19,0,462.39c17.32,0,34.7,0,52.63,0c0-223.85,0-447.73,0-672.12c2.33,0,4.11,0,5.9,0
		c111.79,0,223.59-0.17,335.38,0.11c30.68,0.08,59.97,7.83,88.29,19.34c0.28,0.11,0.46,0.46,1.12,1.16
		c-20.87,13.61-43.3,23.51-67.06,31.24c21.38,4.09,42.77,8.18,64.97,12.42c-6.02,8.23-11.54,15.89-17.25,23.41
		c-0.53,0.69-2.45,1.02-3.36,0.64c-31-12.9-63.65-14.75-96.63-14.76c-76.47-0.01-162.48-0.16-238.95-0.22c0,0,0.13,1.29,0.14,9.71
		c0.04,60.12,0.11,120.24,0.16,180.36c0.01,7.66-0.09,15.32-0.07,22.98c0.01,4.2,0.11,6.42,0.11,6.42
		c22.99-0.07,52.3-0.04,75.29-0.06c0.47,0,0.94-0.17,1.95-0.36c0-48.32,0-96.67,0-144.94c13.31-1.91,215.6-0.73,222.18,1.46
		c-45.38,49.92-95.98,92.61-156.01,124.17c20.61-1.31,41.23-2.63,63.28-4.03c-25.5,23.61-53.62,41.07-83.25,56.28
		c-29.64,15.21-60.5,27.55-92.03,38.31c-0.12,0.58-0.23,1.16-0.35,1.75c2.1,0.78,4.15,2.05,6.3,2.26
		c26.21,2.58,50.3-6.19,74.33-14.52c74.82-25.92,139.88-67.88,197.92-121.23c0.22-0.21,0.35-0.52,1.12-1.72
		c-20.82,4.04-40.9,7.94-60.21,11.69c26.84-24.76,54.02-49.83,81.63-75.3c13.62,8.75,23.72,22.13,31.06,37.65
		c14.3,30.2,15.71,61.56,6.81,93.41c-1.65,5.89-4.86,11.96-8.99,16.44c-21.55,23.33-46.57,41.74-77.47,50.91
		c-13.47,4-27.36,5.72-41.41,5.73c-79.47,0.04-158.94,0.02-238.41,0.02c-1.96,0-3.92,0-6.14,0c0,26.48,0,52.53,0,79.12
		c29.57-10.06,59.92-6.63,89.95-6.81c59.81-0.37,119.62-0.1,179.43-0.35c82.74-0.35,146.54-60.38,166.44-109.85
		c4.38-10.88,7.4-22.39,10.18-33.83c5.94-24.39,5.44-49.22,3.23-73.98c-2.54-28.59-14.55-53.32-32.33-75.49
		c-2.39-2.98-4.79-5.96-7.55-9.39c18.1-18,28.6-40.15,34.74-65.2c1.09,0.68,1.64,0.9,2.04,1.29c37.76,37.06,63.75,80.79,74.9,132.82
		c4.13,19.26,3.34,38.89,2,58.24c-1.62,23.35-3.8,46.89-8.68,69.73c-6.51,30.46-20.85,57.67-41.5,81.41
		c-50.9,58.52-114.8,91.98-192.22,97.03c-38.99,2.54-89.51,1.33-128.64,1.64c0,0-0.09,1.33-0.09,11.07
		c-0.02,36.47-0.04,72.94-0.06,109.4c0,7.55-0.01,9.46-0.01,9.46c31.32-0.04,72.1-0.25,103.42-0.24
		c101.96,0.05,203.92,0.16,305.88,0.25c6.63,0.01,13.27,0,20.31,0C1842.31,524.34,1842.31,352.03,1842.31,179.38z M1113,392.69
		c-1.67,0.88-2.4,1.23-3.09,1.63c-22.06,12.74-44.04,25.6-66.22,38.12c-4.55,2.57-6.1,3.45-6.1,3.45
		c0.08,80.1-0.01,167.46-0.1,247.56c-0.01,12.38,0.01,12.31,0.01,12.31c18.16-0.02,57.31,0.08,75.47,0.07l0.24-8.11
		c0.12-1.66,0.08-3.33,0.08-4.99c-0.09-21.48-0.26-42.96-0.28-64.44c-0.04-72.77-0.01-145.54-0.01-218.31
		C1113,397.83,1113,395.68,1113,392.69z M1340.38,643.31c-0.04,0-0.07,0-0.11,0c0-23.29-0.04-46.59,0.04-69.88
		c0.01-3.14-0.01-5.27-0.01-5.27c-14.8,0.21-33.91-0.41-48.61,0.89c-19.94,1.76-30.35,13.92-30.48,33.9
		c-0.23,36.27-0.28,72.54-0.36,108.82c-0.02,7.24,0.07,8.81,0.07,8.81c20.47-0.02,59.13-0.03,79.6,0c0,0-0.14-1.61-0.14-9.37
		C1340.37,688.56,1340.38,665.94,1340.38,643.31z M1093.18,197.03c6.96-15.03,13.54-29.25,20.13-43.47
		c-17.15,17.01-31.89,35.8-45.59,56.51c6.04,0,11.01,0.03,15.99-0.01c5.96-0.04,6.59,0.88,4.02,6.33
		c-5.88,12.47-11.82,24.92-17.7,37.39c-0.59,1.25-0.98,2.58-1.47,3.88c15.72-18.51,30.72-37.38,45.66-56.3
		c0.61-0.77,1.16-2.6,0.8-2.93c-0.86-0.79-2.25-1.32-3.45-1.35C1105.75,196.96,1099.93,197.03,1093.18,197.03z M1600.27,335.34
		c2.05-7.68,3.99-14.95,6.13-22.96c-12.9-3.57-25.17-6.97-37.9-10.49c-2.28,8.52-4.32,16.13-6.45,24.12
		C1575.04,329.19,1587.43,332.21,1600.27,335.34z M1555.18,351.5c12.87,3.14,25.36,6.19,38.24,9.34c1.87-6.99,3.62-13.51,5.51-20.53
		c-12.89-3.15-25.39-6.2-38.21-9.34C1558.83,337.98,1557.07,344.5,1555.18,351.5z M1101.47,161.15c-0.24-0.55-0.49-1.1-0.73-1.65
		c-21.52-4.45-43.79,8.41-51.1,29.48c-6.7,19.33-0.63,38.81,15.9,50.99c2.03,1.5,4.55,3.5,6.31,0.29
		c3.95-7.21,7.41-14.69,11.07-22.05c-0.38-0.19-0.76-0.37-1.14-0.56c-2.29,3.25-4.57,6.52-6.89,9.75c-4.9,6.81-8.25,6.83-13.47,0.11
		c-17.6-22.66-6.11-54.96,21.86-61.25c3.56-0.8,7.3-0.79,10.82-1.71C1096.67,163.88,1099.02,162.32,1101.47,161.15z M1592.07,365.78
		c-12.97-3.15-25.44-6.18-38.22-9.28c-1.81,6.79-3.45,12.95-5.2,19.54c12.94,3.15,25.43,6.19,38.24,9.31
		C1588.67,378.59,1590.31,372.42,1592.07,365.78z M1436.47,212.55c-11.64-2.86-22.57-5.63-33.57-8.15c-1.96-0.45-4.69-1.6-5.57,2.05
		c-1.28,5.3-2.79,10.54-4.34,16.3c12.91,3.16,25.39,6.21,38.21,9.34C1433,225.44,1434.67,219.24,1436.47,212.55z M1085.29,247.65
		c4.74,0,8.89,0.49,12.9-0.08c19.2-2.74,32.69-15.25,37.22-34.13c4.37-18.2-2.81-32.57-15.32-44.94c-4.07-4.02-8.47-3.43-10.72,1.21
		c-2.3,4.76-3.86,9.87-5.75,14.83c2.6-1.99,4.44-4.35,6.41-6.59c3.78-4.27,7.22-4.3,10.69,0.3c2.48,3.3,4.75,6.87,6.48,10.61
		c11.29,24.43-6.44,52.34-33.29,52.27C1089.7,241.13,1087.45,242.72,1085.29,247.65z M1429.92,237.04
		c-13.08-3.18-25.56-6.21-38.31-9.31c-1.7,6.48-3.23,12.31-4.82,18.41c13.03,3.17,25.41,6.19,38.15,9.29
		C1426.6,249.26,1428.16,243.54,1429.92,237.04z M1548.88,355.24c-12.08-2.93-23.59-5.73-35.37-8.58
		c-1.82,6.83-3.47,13.01-5.21,19.54c12.01,2.91,23.52,5.71,35.32,8.57C1545.41,368.12,1547.04,362.06,1548.88,355.24z
		 M1386.48,368.07c-0.07-0.48-0.15-0.96-0.22-1.44c-9.89-2.39-19.78-4.79-29.85-7.22c-1.66,5.85-3.13,11.04-4.54,16.05
		c-3.87,0.03-5.07-1.22-3.99-4.58c1.3-4.06,2.24-8.23,3.43-12.75c-6.61-1.61-12.79-3.11-18.97-4.61c-0.3,0.37-0.61,0.73-0.91,1.1
		c5.15,9.45,10.21,18.95,15.56,28.28c0.56,0.98,3.17,1.82,4.22,1.35C1363.03,379.01,1374.74,373.5,1386.48,368.07z M1380.69,268.6
		c12.85,3.14,25.35,6.19,38.22,9.34c1.61-5.96,3.1-11.52,4.72-17.53c-12.81-3.13-25.31-6.19-38.23-9.35
		C1383.8,257.03,1382.31,262.58,1380.69,268.6z M1417.63,282.89c-13-3.16-25.5-6.19-38.32-9.3c-1.59,6.07-2.99,11.42-4.46,17.03
		c13.1,3.19,25.48,6.2,38.16,9.28C1414.56,294.18,1415.99,288.92,1417.63,282.89z M1351.31,217.86c-1.31,4.99-2.61,9.57-3.68,14.2
		c-0.69,2.97,0.09,4.91,3.69,5.49c4.56,0.74,9.01,2.18,13.53,3.26c5.55,1.33,11.12,2.61,16.91,3.96c1.7-6.35,3.23-12.07,4.88-18.27
		C1374.83,223.62,1363.31,220.8,1351.31,217.86z M1506.95,371.12c-1.72,6.45-3.27,12.28-4.9,18.42c12.13,2.95,23.52,5.73,35.31,8.6
		c1.68-6.29,3.24-12.14,4.91-18.39C1530.37,376.85,1518.96,374.06,1506.95,371.12z M1362.15,337.68
		c-1.57,5.95-2.96,11.17-4.42,16.71c11.97,2.93,23.4,5.83,34.89,8.41c1.15,0.26,3.55-1.07,3.95-2.17c1.55-4.3,2.52-8.81,3.81-13.61
		C1387.47,343.87,1375.09,340.84,1362.15,337.68z M1491.02,410.82c1.64-6.23,3.09-11.74,4.63-17.59
		c-11.12-2.69-21.68-5.25-32.61-7.9c-1.63,6.06-3.12,11.57-4.72,17.49C1469.36,405.53,1479.93,408.11,1491.02,410.82z
		 M1515.2,341.76c12.08,2.94,23.32,5.68,34.99,8.52c1.88-7.04,3.66-13.66,5.5-20.55c-6.11-1.49-11.57-2.91-17.08-4.08
		c-1.11-0.24-2.68,0.1-3.58,0.78C1528.65,331.22,1522.4,336.16,1515.2,341.76z M1369.1,311.77c4.88,1.21,9.2,2.29,13.53,3.34
		c13.84,3.35,13.89,3.41,25.46-4.52c1.64-1.12,2.6-3.23,4.38-5.55c-13.74-3.34-26.23-6.37-39-9.47
		C1371.96,301.18,1370.63,306.12,1369.1,311.77z M1464.54,380.4c10.94,2.65,21.61,5.24,32.47,7.87c1.58-5.79,2.97-10.88,4.34-15.98
		c0.16-0.61,0.13-1.27,0.22-2.39c-5.19-1.3-10.27-2.61-15.38-3.85C1477.41,363.92,1466.76,370.66,1464.54,380.4z M1347.8,260.61
		c9.37,2.27,18.49,4.48,27.91,6.76c1.61-6.08,3.08-11.61,4.65-17.53c-11.05-2.7-21.63-5.28-32.55-7.95
		C1347.8,248.22,1347.8,254.12,1347.8,260.61z M1376.72,330.55c-0.1-0.28-0.19-0.56-0.29-0.84c3.98-2.35,7.96-4.7,12.97-7.65
		c-7.94-1.93-14.62-3.56-21.62-5.26c-1.49,5.56-2.84,10.59-4.28,15.95c13.02,3.17,25.51,6.21,38.31,9.32
		c1.13-4.52,2.12-8.43,3.23-12.85C1395.07,329.68,1385.9,330.12,1376.72,330.55z M1423.91,279.14c7.61,1.86,14.68,3.45,21.68,5.35
		c3.03,0.82,6.68,1.01,7.2-2c0.83-4.83-0.04-9.96-0.24-14.96c0-0.12-0.58-0.25-0.9-0.32c-7.53-1.82-15.05-3.64-22.98-5.55
		C1427.07,267.49,1425.61,272.89,1423.91,279.14z M1352.65,212.95c12.04,2.91,23.66,5.71,35.4,8.55c1.63-6.3,3.02-11.64,4.44-17.14
		c-12.87,0-25.12,0-37.54,0C1354.23,207.08,1353.55,209.62,1352.65,212.95z M1040.89,341.73l5.88-4.22
		c-0.29-21.64-0.13-49.29-0.13-70.94c0-1.77,0-3.54,0-5.28c-2.29,0-3.9,0-5.76,0C1040.89,287.44,1040.89,315.37,1040.89,341.73z
		 M1580.32,390.13c-0.07-0.38-0.15-0.76-0.22-1.14c-10.82-2.64-21.64-5.28-32.8-8.01c-1.7,6.33-3.27,12.19-5.03,18.76
		c4.85,0.73,9.75,2.99,13.47,1.73C1564.24,398.61,1572.16,394.02,1580.32,390.13z M1495.73,412.98c12.77-1.46,24.38-2.71,35.96-4.17
		c3.12-0.39,4.39-2.51,3.55-5.92c-11.4-2.77-22.77-5.53-34.52-8.39C1499.14,400.36,1497.68,405.74,1495.73,412.98z M1347.68,283.99
		c7.52,1.82,14.7,3.55,22.16,5.35c1.57-5.99,2.97-11.35,4.46-17.02c-9.17-2.22-17.75-4.29-26.62-6.43
		C1347.68,272.21,1347.68,277.83,1347.68,283.99z M1605.28,336.55c7.15,1.74,13.96,3.39,21.15,5.13c1.42-5.52,2.77-10.43,3.86-15.39
		c0.18-0.83-0.55-2.42-1.3-2.81c-5.77-3.04-11.65-5.86-17.83-8.92C1609.06,322.4,1607.23,329.24,1605.28,336.55z M1429.98,256.65
		c8.03,1.96,15.54,3.79,23.81,5.81c-0.53-6.46-0.9-12.24-1.58-17.99c-0.11-0.93-1.47-2.18-2.48-2.47c-4.77-1.36-9.61-2.43-14.83-3.7
		C1433.24,244.5,1431.66,250.36,1429.98,256.65z M1626.2,346.92c-8.65-2.08-15.32-3.68-22.27-5.35c-1.9,7.09-3.63,13.56-5.47,20.42
		c4.06,1.03,7.69,2.1,11.39,2.81c1.1,0.21,2.88-0.17,3.5-0.95C1617.49,358.66,1621.41,353.29,1626.2,346.92z M1440.68,334.27
		c-10.94-2.33-20.29-4.33-29.85-6.37c-1.56,5.93-2.76,10.49-4.03,15.34c3.9,0.99,7.23,1.94,10.61,2.64c1.87,0.39,4.34,1.2,5.67,0.39
		C1428.68,342.88,1433.96,338.94,1440.68,334.27z M1424.17,394.53c10.45,2.53,19.77,4.79,29.52,7.15c1.61-5.96,3.11-11.49,4.82-17.8
		c-3.59-0.46-7.25-2.08-9.87-1.05C1440.67,385.98,1433.1,390.16,1424.17,394.53z M1364.08,310.56c1.51-5.59,2.88-10.66,4.38-16.19
		c-6.97-1.71-13.68-3.36-20.66-5.08c0,5.98,0,11.55,0,17.34C1353.24,307.94,1358.49,309.21,1364.08,310.56z M1417.86,411.72
		c11.51,0,22.24,0,33.2,0c0.36-1.72,0.67-3.25,1.06-5.13c-10.41-2.53-20.47-4.98-30.91-7.52
		C1420.05,403.46,1419,407.41,1417.86,411.72z M1422.62,284.1c-1.58,5.85-3.02,11.22-4.88,18.14c10.53-1.63,16.62-8.83,25.9-12.95
		C1435.83,287.36,1429.58,285.82,1422.62,284.1z M1347.72,328.95c3.68,0.8,7.16,1.57,10.83,2.37c1.48-5.54,2.79-10.47,4.2-15.75
		c-5.2-1.26-9.97-2.42-15.03-3.65C1347.72,317.69,1347.72,322.98,1347.72,328.95z M1416.59,397.81c-9.92,3.76-19.11,7.23-29.07,11
		c8.11,3.24,15.81,3.48,23.55,3.04c0.82-0.05,2.01-1.16,2.27-2.01C1414.52,406.1,1415.41,402.29,1416.59,397.81z M1451.5,237.05
		c-1.91-7.65-3.39-14.24-5.32-20.68c-0.36-1.2-2.57-1.84-4.55-3.16c-1.93,7.19-3.59,13.37-5.38,20.04
		C1441.07,234.45,1445.52,235.56,1451.5,237.05z M1557.03,324.78c1.98-7.42,3.81-14.25,6-22.42c-7.58,6.66-14.11,12.39-21.25,18.66
		C1547.15,322.35,1551.76,323.49,1557.03,324.78z M1503.27,364.99c1.61-6.01,3.11-11.59,4.92-18.34c-7.64,5.1-14.08,9.4-21.31,14.22
		C1492.68,362.34,1497.6,363.57,1503.27,364.99z M1343.3,350.17c-0.06,0.22-0.12,0.44-0.19,0.66c3.11,0.75,6.23,1.5,9.6,2.31
		c1.52-5.76,2.9-10.99,4.39-16.64c-3.37-0.8-6.27-1.49-9.61-2.28c0,5.6,0,10.53,0,15.55C1345.9,349.92,1344.6,350.05,1343.3,350.17z
		 M1593.45,380.58c0.24,0.29,0.49,0.59,0.73,0.88c4.28-3.75,8.56-7.5,13.55-11.86c-4.22-0.98-7.32-1.7-10.64-2.48
		C1595.77,371.98,1594.61,376.28,1593.45,380.58z M1402.49,359.08c4.99-2.96,8.82-5.24,13.84-8.22c-4.45-1.02-7.53-1.73-10.92-2.51
		C1404.47,351.76,1403.67,354.71,1402.49,359.08z M1456.27,411.72c5.03,0,9.7,0,15.04,0
		C1458.55,407.2,1457.45,407.19,1456.27,411.72z M1447.62,327.48c-3.32,0-6.61,0-10.82,0
		C1443.86,330.89,1444.73,330.85,1447.62,327.48z M1426.66,204.31c8.9,3.55,10.34,3.55,11.59,0
		C1434.5,204.31,1430.82,204.31,1426.66,204.31z"/>
	<path class="st1" d="M2143.24,744.78c6.91,0,14.07,1.35,20.36-0.4c5.65-1.58,13.39-2.72,14.7-11.17
		c16.08,0.15,28.08-10.19,41.4-16.76c45.52-22.46,90.68-45.65,135.98-68.56c0.73-0.37,1.48-0.68,2.55-1.17
		c0.76,1.27,1.47,2.46,2.48,4.15c-8.72,4.42-17.13,8.69-25.55,12.94c-45.6,23.05-91.15,46.18-136.84,69.05
		c-5.22,2.61-8.15,5.41-5.86,11.46c16.2,2.83,38.23-0.22,39.23-11.05c14.53,0.5,25.35-8.84,37.34-14.78
		c45.93-22.75,91.56-46.12,137.3-69.24c1.31-0.66,2.67-1.23,4.23-1.94c0.76,1.32,1.39,2.43,2.21,3.86c-1.43,0.87-2.62,1.71-3.9,2.36
		c-23.75,12.03-47.52,24.04-71.28,36.05c-28.96,14.64-57.85,29.43-86.96,43.77c-5.31,2.62-7.2,5.68-5.53,11.92
		c10.34-1.28,21.16,2.68,31.49-2.59c4.29-2.18,9.54-3.45,7.3-9.88c0.75-0.36,0.91-0.52,1.04-0.5c11.35,1.59,20.47-4.14,29.94-8.94
		c49.28-24.99,98.6-49.89,147.91-74.81c1.46-0.74,2.94-1.43,4.62-2.25c0.78,1.36,1.41,2.46,2.17,3.81c-1.1,0.74-1.97,1.47-2.96,1.97
		c-25.23,12.81-50.46,25.6-75.7,38.37c-29.26,14.8-58.47,29.68-87.85,44.23c-4.61,2.28-6.2,4.91-4.68,9.92c11.01,0,22.11,0,33.69,0
		c0.24-4.37,0.18-8.82,0.79-13.18c1-7.1,5.6-11.21,12.28-11.58c7.74-0.44,13.3,4,14.05,11.73c0.41,4.24,0.07,8.56,0.07,13.35
		c13.25-0.54,26.17,2.7,37.31-5.84c2.09-1.6,3.81-3.69,5.23-6.11c14.77-0.1,26.08-9.98,38.66-16.2
		c44.31-21.9,88.28-44.47,132.38-66.77c0.44-0.22,0.93-0.34,1.74-0.62c0.75,1.16,1.51,2.36,2.43,3.78c-0.9,0.57-1.52,1.06-2.22,1.41
		c-42.91,21.72-85.83,43.43-128.75,65.13c-8.17,4.13-16.34,8.26-24.52,12.38c-7.28,3.66-7.28,3.66-6.33,12.16
		c17.33,3.16,38.96-1.44,39.13-11.01c23.08-3.77,41.57-17.78,61.82-27.58c37.29-18.05,74.04-37.21,111.34-56.07
		c0.88,1.23,1.71,2.38,2.7,3.75c-0.98,0.65-1.72,1.26-2.56,1.68c-39.34,19.92-78.7,39.83-118.05,59.74
		c-11.73,5.94-23.45,11.88-35.19,17.82c-7.03,3.55-7.03,3.54-5.85,12.43c10.94-1.25,22.33,2.76,32.86-4.05
		c5.21-3.37,5.48-2.94,6.53-9.08c15.66,2,27.07-8.36,39.77-14.63c45.06-22.26,89.77-45.21,135.09-68.13
		c0.85,1.38,1.65,2.68,2.6,4.23c-18.91,9.58-37.46,18.98-56.01,28.36c-34.01,17.2-67.97,34.5-102.11,51.44
		c-5.25,2.61-7.36,5.58-5.37,11.63c15.68,0,31.59,0,47.9,0c0,6.73,0,12.97,0,20.05c-1.68,0-3.59,0-5.5,0
		c-31.65,0-63.31-0.05-94.96,0.08c-2.7,0.01-5.64,0.69-8.05,1.9c-22.49,11.21-44.89,22.6-67.31,33.94
		c-2.06,1.04-4.12,2.07-6.44,3.23c-0.84-1.48-1.53-2.71-2.42-4.28c22.49-11.39,44.71-22.64,66.93-33.9
		c-0.01-0.32-0.02-0.65-0.03-0.97c-2.33,0-4.67,0-7,0c-11.33,0.02-23.12-1.91-33.85,0.61c-10.72,2.52-20.39,9.49-30.51,14.54
		c-5.81,2.9-11.54,5.96-17.41,8.72c-2.75,1.29-4,2.9-3.82,6.08c0.26,4.48-0.06,8.99-0.07,13.48c-0.01,5.36,1.05,6.38,6.43,6.38
		c42.98-0.02,85.97-0.03,128.95-0.04c1.63,0,3.27,0,5.22,0c0,4.13,0,7.86,0,11.93c-1.41,0.21-2.8,0.41-4.58,0.67
		c0,8.83,0,17.43,0,26.04c-0.58-0.22-1.16-0.44-1.74-0.67c-1.2,1.99-3.02,3.84-3.51,6c-3.47,15.11-15.46,24.73-31.94,24.9
		c-15.99,0.17-31.99-0.09-47.98,0.15c-2.78,0.04-5.87,1.12-8.2,2.66c-1.83,1.22-3.52,3.24-1.18,6.46c1.54,2.12,1.33,5.78,1.28,8.74
		c-0.07,3.95,1.71,5.34,5.39,6.15c28.38,6.3,53.2,19.69,75.34,38.3c0.76,0.64,1.48,1.33,2.81,2.53
		c-14.24,11.21-28.28,22.25-42.6,33.52c-3.02-2.29-5.82-4.58-8.79-6.64c-44.29-30.73-91.66-36.07-141.78-16.63
		c-11.74,4.55-21.88,11.96-31.02,20.64c-31.82,30.24-32.33,76.56-1,107.59c20.2,20.02,44.99,30.42,73,33.45
		c21.41,2.32,42.59,1.3,63.12-5.91c16.91-5.94,30.22-16.58,40.24-31.38c0.81-1.2,1.48-2.5,2.7-4.58c-15.93,0-31.15,0-46.36,0
		c-15.13,0-30.25,0-45.68,0c0-15.32,0-30.24,0-45.58c53.23,0,106.59,0,160.33,0c1.77,16.18,0.02,32.07-6.35,47.19
		c-16.99,40.3-47.47,65.89-88.56,79.23c-29.97,9.73-60.83,10.85-91.92,7.55c-29.35-3.12-57.12-11.35-82.11-27.4
		c-30.18-19.39-51.63-45.66-59.59-81.15c-8.68-38.66,1.17-72.89,27.81-102.12c22.38-24.55,50.1-40.39,82.2-48.53
		c3.92-0.99,5.37-2.65,5.67-6.55c0.25-3.29,2.26-6.51,2.17-9.73c-0.07-2.18-1.98-4.93-3.88-6.27c-1.83-1.29-4.71-1.46-7.14-1.48
		c-15.16-0.12-30.32-0.06-45.48-0.06c-18.98-0.01-29.83-8.58-34.16-26.95c-0.15-0.63-0.3-1.26-0.45-1.93
		c-1.52-0.37-2.93-0.71-4.59-1.11c0-8.77,0-17.39,0-26.25c-1.64-0.37-3.02-0.68-4.63-1.04c0-3.76,0-7.5,0-11.74
		c2.25,0,4.21,0,6.16,0c40.48,0,80.97,0,121.45,0c7.97,0,9.43-1.37,7.77-8.92c-0.69-3.13-0.61-5.68-0.11-8.85
		c0.96-6.12,0.28-12.5,0.28-19.6c-18.05,9.12-35.36,17.86-53.01,26.77c-0.82-1.34-1.55-2.53-2.42-3.95c0.89-0.6,1.51-1.11,2.22-1.47
		c16.33-8.28,32.66-16.55,49-24.8c2.36-1.19,5.07-1.93,4.32-5.63c-0.75-3.72-3.51-3.43-6.19-3.43c-26.49,0.03-52.98,0.01-79.47,0.19
		c-2.35,0.02-4.87,0.93-7.02,2.01c-22.46,11.25-44.85,22.63-67.63,34.15c-0.82-1.29-1.56-2.46-2.66-4.18
		c20.75-10.51,41.15-20.85,61.55-31.19c-0.04-0.33-0.07-0.66-0.11-0.99c-4.68,0-9.43,0.49-14.04-0.08
		c-19.87-2.45-37.4,3.33-54.44,13.23c-15.2,8.84-31.32,16.09-47.26,24.16c-0.82-1.35-1.49-2.43-2.57-4.21
		c21.3-10.8,42.37-21.48,63.44-32.16c-0.08-0.31-0.16-0.63-0.24-0.94c-9.58,0-19.15,0.09-28.73-0.08c-1.79-0.03-3.56-1.15-5.34-2.99
		c-26.13,13.21-52.25,26.42-78.75,39.81c-0.79-1.26-1.52-2.42-2.44-3.89c1.05-0.7,1.79-1.3,2.62-1.72
		c24.35-12.33,48.65-24.77,73.12-36.86c4.71-2.33,7.73-4.78,6.56-10.42C2142.71,747.63,2143.05,746.62,2143.24,744.78z
		 M2391.64,903.78c1.5-4.81,1.62-9.46,4.22-14.11c3.94-7.05,8.68-9.17,15.99-9.06c15.31,0.24,30.62,0.14,45.93,0.17
		c16.65,0.03,29.22-11.08,29.91-26.56c-1.39-0.26-2.79-0.53-4.73-0.9c0-8.86,0-17.57,0-25.95c-24.78,0-48.97,0-73.53,0
		c0,9.02,0,17.46,0,24.72c-2.61,1.9-5.22,2.81-6.07,4.57c-5.89,12.14-15.76,17.53-28.83,17.84c-4.77,0.11-9.55,0.02-14.42,0.02
		c0,9.02,0,17.42,0,25.99C2370.81,901.62,2381.15,902.69,2391.64,903.78z M2213.7,827.06c0,9.14,0,17.88,0,26.49
		c-1.88,0.54-3.24,0.94-4.55,1.32c1.79,16.41,14.13,26.33,31.73,26.09c15.48-0.21,30.95-0.17,46.43-0.15
		c4.24,0.01,8.83,0.43,10.96,4.58c2.5,4.86,7.3,8.84,6.43,15.2c-0.14,1,0.58,2.11,0.89,3.15c9.02-1.01,17.73-1.99,26.4-2.96
		c0-8.92,0-17.46,0-26.28c-5.71,0-11.03,0.18-16.33-0.04c-11.45-0.46-20.64-5.17-26.16-15.47c-1.73-3.23-3.12-6.02-7.72-5.41
		c0-9.08,0-17.67,0-26.52C2259.08,827.06,2236.86,827.06,2213.7,827.06z M2332.13,871.39c0-14.55,0-29.12,0-43.93
		c-12.67,0-25.19,0-37.97,0c0,8.88,0,17.34,0,25.71c-1.41,0.53-2.55,0.95-3.72,1.38C2297.66,870.49,2310.24,873.55,2332.13,871.39z
		 M2359.8,871.59c22.8,2.45,35.74-3.04,40.38-15.39c-5.55-9.93-0.86-19.8-3.34-28.63c-12.35,0-24.67,0-37.04,0
		C2359.8,842.52,2359.8,856.92,2359.8,871.59z M2359.4,785.13c13.28-6.72,25.72-13.02,38.16-19.31c-11.42-1.08-22.38-1-33.33-1.13
		c-3.19-0.04-4.73,1.32-4.8,4.3C2359.31,774.06,2359.4,779.15,2359.4,785.13z"/>
	<path class="st1" d="M1681.01,1162.43c-18.97,0-37.61,0.06-56.25-0.12c-1.44-0.01-3.21-1.51-4.25-2.78
		c-42.77-52.36-85.47-104.77-128.18-157.17c-1.66-2.04-3.35-4.06-5.91-7.16c0,56.34,0,111.44,0,166.89c-20.56,0-40.45,0-60.75,0
		c0-84.9,0-169.87,0-255.49c2.88,0,5.83,0,8.77,0c14.49,0,28.99,0.17,43.48-0.11c4.11-0.08,6.63,1.28,9.18,4.41
		c42.79,52.76,85.7,105.43,128.59,158.11c1.25,1.53,2.55,3.02,4.57,5.42c0-56.44,0-111.87,0-167.58c20.53,0,40.45,0,60.74,0
		C1681.01,991.82,1681.01,1076.8,1681.01,1162.43z"/>
	<path class="st1" d="M182.74,982.46c10.96-1.74,20.96-3.32,31.4-4.98c0-23.5,0-46.92,0-70.69c30.19,0,59.92,0,90.91,0
		c-3.36-7-5.72-13.62-9.44-19.37c-10.93-16.9-21.79-33.9-33.84-50c-9.99-13.33-23.66-22.84-38.64-30.2
		c-6.61-3.25-11.85-2.39-16.68,3.11c-3.8,4.33-6.85,9.31-10.22,14c-4.11-1.75-8.47-3.61-13.28-5.65
		c5.84-9.14,11.62-18.84,21.06-25.51c5.75-4.06,12.19-3.86,18.68-1.8c11.5,3.64,21.09,10.37,30.21,18.07
		c26.47,22.37,45.26,50.78,63.1,79.91c3,4.9,4.47,10.71,7.04,15.9c0.76,1.53,2.68,3.07,4.35,3.48c10.16,2.47,20.82,3.47,30.52,7.07
		c44.24,16.41,52.99,57.71,42.03,88.39c-5.6,15.69-17.16,26.27-31.31,34.27c-16.76,9.48-35.05,13.39-54.08,13.96
		c-12.95,0.39-25.92,0.07-39.13,0.07c-0.19,2.8-0.36,4.24-0.37,5.69c-0.03,7.33,0.3,14.67-0.08,21.98
		c-0.66,12.8,1.09,24.73,6.87,36.59c7.63,15.66,3.8,31.49-2.99,46.72c-7.28,16.33-19.18,29.36-32.08,41
		c-13.77,12.42-29.28,22.91-44.17,34.35c-2.96-4.67-5.49-8.66-8.31-13.09c7.8-6.29,15.77-12.71,23.79-19.19
		c-2.46-4.86-5.13-9.41-7.16-14.24c-9.22-21.91-13.71-45.16-18.9-68.2c-0.58-2.6-1.63-5.18-1.68-7.79
		c-0.22-11.06-6.33-17.79-15.02-23.88c-12.23-8.57-23.58-18.4-35.08-27.51c3.55-3.92,6.7-7.4,10.22-11.29
		c10.64,8.89,21.68,18.1,33.55,28.02c-4.77-28.01-9.34-54.86-13.98-82.1c-15.65,2.89-30.6,6.5-44.88,12.55
		c-8.21,3.48-8.22,3.49-14.35-3.28c-1-1.1-1.92-2.28-2.82-3.46c-0.17-0.22-0.08-0.63-0.25-2.39c19.42-5.7,39.1-11.47,59.38-17.42
		c-5.18-42.47-3.74-85.36,2.6-128.47c4.98,1.66,9.44,3.14,14.12,4.7C178.81,901.78,176.19,941.83,182.74,982.46z M275.19,1006.28
		c1.41,0.1,2.38,0.24,3.34,0.23c10.99-0.17,21.98-0.14,32.95-0.65c5.27-0.25,10.66-1,15.71-2.5c11.53-3.42,17.86-11.98,17.86-23.01
		c-0.01-11.14-6.16-19.58-17.91-22.88c-6.82-1.92-14.02-3.01-21.1-3.4c-10.21-0.56-20.47-0.14-30.85-0.14
		C275.19,971.49,275.19,988.6,275.19,1006.28z M184.82,995.48c7.19,50.69,16.29,99.96,28.94,148.58c0-50.64,0-101.29,0-152.87
		C203.99,992.63,194.7,994.01,184.82,995.48z M217.29,1162.54c4.02,12.19,7.81,23.67,11.81,35.78
		c14.14-9.88,23.36-22.12,31.89-35.78C246.25,1162.54,232.34,1162.54,217.29,1162.54z"/>
	<path class="st1" d="M2014.67,1054.21c0,36.02,0,71.94,0,107.95c-20.39,0-40.31,0-60.48,0c0-85.14,0-170.01,0-255.15
		c1.14-0.14,2.26-0.4,3.37-0.39c31.81,0.31,63.62,0.32,95.42,1.11c15.3,0.38,30.6,2.18,45.04,7.89
		c41.74,16.51,53.43,56.58,41.37,89.46c-5.69,15.51-17.16,25.97-31.51,33.3c-7.63,3.89-15.75,6.83-24.2,10.44
		c24.83,37.51,49.67,75.06,74.84,113.09c-1.44,0.23-2.47,0.52-3.49,0.52c-19.66,0.03-39.31-0.08-58.97,0.12
		c-3.29,0.03-4.64-1.55-6.18-3.89c-22.26-33.76-44.61-67.46-66.84-101.24C2021.1,1054.47,2019.19,1052.48,2014.67,1054.21z
		 M2015.22,953.56c0,17.94,0,35.28,0,52.95c5.71,0,11.02,0.08,16.32-0.02c5.82-0.11,11.68-0.02,17.45-0.67
		c6.75-0.76,13.57-1.67,20.08-3.52c8.67-2.47,14.14-8.42,15.39-17.71c1.81-13.54-5.03-24.13-19.09-27.99
		C2048.94,952.09,2032.07,953.94,2015.22,953.56z"/>
	<path class="st1" d="M1737.33,1162.11c0-85.12,0-169.98,0-255.19c57.94,0,115.8,0,173.91,0c0,15.42,0,30.67,0,46.51
		c-37.71,0-75.42,0-113.43,0c0,15.82,0,31.06,0,46.88c37.66,0,75.35,0,113.37,0c0,15.95,0,31.31,0,47.09c-37.77,0-75.35,0-113.31,0
		c0,22.76,0,45.12,0,67.88c37.7,0,75.27,0,113.24,0c0,15.77,0,31.13,0,46.82C1853.4,1162.11,1795.68,1162.11,1737.33,1162.11z"/>
	<path class="st1" d="M1271.95,1047.46c0,22.82,0,45.05,0,67.86c37.79,0,75.49,0,113.46,0c0,15.83,0,31.09,0,46.72
		c-57.81,0-115.66,0-173.82,0c0-85.04,0-170.01,0-255.22c57.98,0,115.71,0,173.77,0c0,15.5,0,30.86,0,46.64
		c-37.75,0-75.33,0-113.3,0c0,15.77,0,31.13,0,46.9c37.69,0,75.26,0,113.23,0c0,15.77,0,31.13,0,47.09
		C1347.62,1047.46,1309.92,1047.46,1271.95,1047.46z"/>
	<path class="st1" d="M1058.44,941.94c-14.98,10.6-29.65,20.97-44.46,31.45c-3.99-3.66-7.74-7.43-11.82-10.78
		c-13.25-10.87-27.94-17.69-45.55-13.98c-4.4,0.93-8.83,3.09-12.53,5.7c-6.44,4.54-7.57,11.48-3.11,17.99
		c2.3,3.37,5.34,6.48,8.65,8.86c17.17,12.33,34.5,24.43,51.85,36.51c15.29,10.65,31.22,20.46,44.09,34.24
		c9.78,10.48,16.71,22.3,18.3,36.86c2.4,22.02-4.86,40.26-21.35,54.86c-13.44,11.9-29.32,18.76-46.83,22.06
		c-21.74,4.09-43.43,3.89-64.9-1.57c-29.52-7.51-51.01-25.66-67.15-51.77c16.93-8.29,33.74-16.52,50.83-24.89
		c1.97,2.56,3.83,5.08,5.8,7.51c10.76,13.32,23.43,23.74,41.12,25.97c11.56,1.46,22.63-0.26,32.51-6.86
		c12.28-8.2,14.33-19.77,4.8-31c-4.68-5.52-10.39-10.37-16.32-14.57c-17.52-12.41-35.64-23.98-53.01-36.6
		c-11.02-8-21.7-16.65-31.47-26.12c-11.62-11.26-19.45-24.9-19.26-41.91c0.16-15.05,6.51-27.32,17.14-37.53
		c17.26-16.59,38.42-24.02,61.88-25.59C997.64,898.1,1030.19,913.88,1058.44,941.94z"/>
	<path class="st1" d="M777.51,906.84c20.47,0,40.39,0,60.66,0c0.13,1.3,0.36,2.57,0.36,3.84c0,52.11,0.12,104.22-0.16,156.33
		c-0.06,10.95-1.36,21.91-2.46,32.82c-1.41,14-8.2,25.46-17.68,35.52c-15.5,16.43-34.49,26.37-56.65,30.28
		c-27.16,4.79-54.05,4.13-80.27-5.25c-6.07-2.17-11.94-5.07-17.64-8.13c-24.38-13.08-37.65-33.57-39.79-61.11
		c-0.92-11.94-1.74-23.92-1.79-35.88c-0.2-47.45-0.08-94.9-0.08-142.35c0-1.95,0-3.91,0-6.08c20.5,0,40.42,0,61.14,0
		c0,2.14,0,4.21,0,6.29c0,52.44-0.02,104.89,0.03,157.33c0.01,5.32,0.23,10.66,0.69,15.96c1.51,17.26,9.72,27.37,26.41,32.34
		c13.46,4.01,27.01,3.7,40.31-0.66c16.52-5.4,25.49-16.78,26.08-34.39c0.26-7.65,0.77-15.3,0.78-22.95
		c0.07-49.28,0.04-98.56,0.04-147.84C777.51,910.97,777.51,909.02,777.51,906.84z M818.38,1042.26c0-41.08,0-81.74,0-122.27
		c-7.4,0-14.45,0-21.38,0c0,40.95,0,81.5,0,122.27C804.18,1042.26,811.11,1042.26,818.38,1042.26z M642.13,919.82
		c0,41.04,0,81.7,0,122.27c7.39,0,14.44,0,21.41,0c0-40.94,0-81.49,0-122.27C656.36,919.82,649.44,919.82,642.13,919.82z"/>
	<path class="st1" d="M2678.95,1162.21c-20.71,0-40.65,0-61.26,0c0-2.14,0-4.07,0-6.01c0-33.14,0.07-66.28-0.12-99.41
		c-0.02-3.09-1.05-6.6-2.72-9.2c-28.98-45.07-58.14-90.04-87.25-135.02c-1.08-1.67-2.12-3.36-3.5-5.54
		c1.57-0.17,2.77-0.41,3.97-0.42c18.99-0.02,37.98,0.08,56.97-0.11c3.35-0.03,5.02,1.26,6.71,3.88
		c17.74,27.57,35.6,55.07,53.43,82.58c0.99,1.53,2.03,3.02,3.45,5.13c1.21-1.75,2.24-3.13,3.17-4.57
		c17.76-27.56,35.57-55.08,53.17-82.74c2.07-3.25,4.24-4.3,7.99-4.27c19.45,0.19,38.9,0.09,59.12,0.09
		c-1.33,2.24-2.27,3.91-3.3,5.52c-28.92,44.91-57.89,89.79-86.67,134.8c-1.83,2.86-3.01,6.69-3.03,10.08
		c-0.22,32.97-0.13,65.94-0.13,98.92C2678.95,1157.87,2678.95,1159.83,2678.95,1162.21z"/>
	<path class="st1" d="M446.63,906.74c20.18,0,39.97,0,60.41,0c0,69.45,0,138.74,0,208.59c29.84,0,59.04,0,88.5,0
		c0,15.8,0,31.05,0,46.71c-49.46,0-98.99,0-148.91,0C446.63,1077.17,446.63,992.2,446.63,906.74z"/>
	<path class="st1" d="M1672.82,171.74c0.25-19.3-1.85-37.83-13.81-55.04c-38.85,76.79-99.67,132.75-166.42,183.55
		c10.19-1.89,20.77-3.86,31.36-5.82c10.78-2,21.57-3.98,32.46-5.99c-4.91,10.09-72.15,58.28-116.83,80.29
		c-51.96,25.6-123.18,50.2-134.09,45.6c2.3-0.97,3.81-1.66,5.35-2.25c31.37-12,63.02-23.29,92.48-39.75
		c25.61-14.31,50.47-29.72,72.91-48.77c0.89-0.75,1.76-1.54,2.51-2.42c2.03-2.38,3.99-4.82,6.86-8.3
		c-19.47,1.37-37.75,2.65-56.26,3.95c86.44-52.06,153.14-123.43,207.54-207.48c-19.15-2.85-37.97-5.65-56.8-8.46
		c-0.1-0.41-0.21-0.82-0.31-1.23c25.51-10.71,49.16-24.54,70.98-41.42C1672.7,41.23,1692.46,22,1709.46,0c0.37,0.31,0.8,0.5,0.8,0.7
		c0.81,42.32-2.66,84.15-14.99,124.87C1690.29,142.02,1683.7,157.79,1672.82,171.74z"/>
	<path class="st1" d="M1116.96,1281.46c0-16.59,0-33.17,0-50.02c9.31,0,18.21,0,27.38,0c0,31.58,0,62.95,0,94.84
		c-8.76,0-17.37,0.15-25.96-0.15c-1.33-0.05-2.89-1.92-3.84-3.29c-9.73-14.1-19.36-28.28-29.02-42.42
		c-1.01-1.48-2.08-2.91-3.97-5.55c0,17.79,0,34.27,0,51.08c-9.52,0-18.4,0-27.62,0c0-31.35,0-62.71,0-94.74
		c8.59,0,17.18-0.12,25.75,0.14c1.21,0.04,2.65,1.73,3.51,2.98c9.99,14.53,19.89,29.12,29.82,43.69c0.92,1.36,1.95,2.64,2.93,3.96
		C1116.29,1281.81,1116.63,1281.64,1116.96,1281.46z"/>
	<path class="st1" d="M2445.25,1284.42c8.88,3.37,13.14,9.87,16.81,16.86c4.23,8.05,8.33,16.17,12.86,24.98
		c-11.07,0-21.33,0.1-31.59-0.14c-1.14-0.03-2.59-1.74-3.3-3.01c-5.19-9.3-10.23-18.67-15.3-28.04c-2.81-5.18-6.98-7.87-13.6-7.21
		c0,12.56,0,25.12,0,38.04c-10.13,0-19.68,0-29.56,0c0-31.38,0-62.74,0-94.74c3.4,0,6.68-0.01,9.95,0
		c14.49,0.03,28.99,0.03,43.48,0.12c2.99,0.02,6,0.21,8.95,0.67c14.12,2.18,21.97,9.74,23.12,22.07
		c1.32,14.26-5.18,24.34-18.83,29.21C2447.63,1283.48,2447.05,1283.72,2445.25,1284.42z M2411.3,1250.05c0,7.05,0,13.12,0,20.05
		c6.67-0.59,12.95-0.91,19.15-1.76c4.85-0.67,7.06-4.07,7.02-8.84c-0.04-4.62-2.32-7.82-6.95-8.32
		C2424.28,1250.5,2417.98,1250.42,2411.3,1250.05z"/>
	<path class="st1" d="M1785.8,1278.44c0.98-5.88,1.43-11.91,3.03-17.63c5.22-18.65,19.96-29.69,41.74-31.11
		c6.25-0.41,12.72-0.04,18.86,1.15c21.91,4.26,34.03,18.88,35.41,43.12c0.42,7.37-0.26,15.09-2.07,22.23
		c-4.4,17.35-16.29,27.37-33.73,30.66c-10.26,1.94-20.59,1.57-30.71-1.08c-18.9-4.96-30.67-20.71-31.84-42.25
		c-0.09-1.66-0.01-3.33-0.01-4.99C1786.26,1278.5,1786.03,1278.47,1785.8,1278.44z M1815.22,1279.15c1.07,5.26,1.6,10.62,3.3,15.58
		c2.51,7.29,9.07,11.24,17.25,11.12c7.51-0.11,14.01-2.6,16.85-10.1c4.08-10.75,4.3-21.86,0.47-32.73
		c-2.6-7.36-9.42-11.25-17.81-11.13c-8.12,0.11-14.46,4.06-16.91,11.56C1816.74,1268.43,1816.25,1273.78,1815.22,1279.15z"/>
	<path class="st1" d="M568.59,1231.41c10.13,0,19.4,0,29.25,0c0,3.65,0,7.09,0,10.54c0,14.65,0.01,29.29,0,43.94
		c-0.03,26.74-13.8,41.27-40.5,42.02c-7.6,0.21-15.34-0.5-22.83-1.83c-14.88-2.63-25.85-14.13-27.05-31.64
		c-1.42-20.82-0.33-41.81-0.33-62.99c9.52,0,18.91,0,28.83,0c0,2.04,0,3.82,0,5.6c0,17.14-0.08,34.28,0.03,51.43
		c0.08,12.25,7.14,18.37,19.24,16.98c7.02-0.81,11.52-4.92,12.76-11.95c0.43-2.44,0.57-4.96,0.58-7.44
		c0.05-16.31,0.03-32.62,0.03-48.93C568.59,1235.35,568.59,1233.56,568.59,1231.41z"/>
	<path class="st1" d="M791.51,1257.88c-9.26,0.55-18.16,1.09-26.94,1.61c-4.97-10.48-8.58-13.03-17.07-12.09
		c-4.1,0.45-7.66,2-8.1,6.65c-0.43,4.5,3.2,5.91,6.6,6.86c6.88,1.92,13.87,3.45,20.76,5.33c3.36,0.91,6.68,2.05,9.88,3.43
		c10.18,4.4,17.15,11.58,17.98,23.11c0.89,12.34-4.06,22.17-14.6,28.63c-4.01,2.46-8.76,4.11-13.39,5.09
		c-12.07,2.57-24.21,2.06-36.05-1.38c-12.76-3.71-21.85-16.49-21.65-30.34c8.95-0.57,17.97-1.14,27.15-1.72
		c0.61,2.1,1.05,3.83,1.62,5.51c3.12,9.3,14.89,13.7,23.37,8.76c6.59-3.84,6.78-12.09-0.02-15.59c-4.07-2.1-8.78-2.93-13.17-4.44
		c-7.36-2.53-14.97-4.56-21.96-7.87c-9.12-4.32-14.21-12.03-13.95-22.37c0.26-10.39,5.3-18.44,14.71-22.57
		c16.61-7.29,33.73-7.27,50.34,0.01C786.56,1238.69,790.2,1247.42,791.51,1257.88z"/>
	<path class="st1" d="M1620.81,1293.07c3.45,13.21,10.95,18.4,21.63,15.52c4.34-1.17,7.62-3.51,8.15-8.3
		c0.55-4.93-2.36-7.94-6.56-9.45c-4.99-1.8-10.25-2.8-15.27-4.52c-6.42-2.2-13.14-4.02-18.98-7.32
		c-17.84-10.09-17.62-33.57,0.19-43.83c10.58-6.09,22.27-6.25,33.97-5.34c4.6,0.36,9.27,1.29,13.63,2.77
		c11.68,3.96,17.09,12.87,18.67,25.27c-9.26,0.56-18.15,1.1-26.92,1.63c-5.2-10.54-8.66-12.99-17.07-12.1
		c-4.09,0.44-7.66,1.94-8.16,6.59c-0.48,4.52,3.13,5.93,6.53,6.9c9.26,2.65,18.72,4.67,27.84,7.7c9.51,3.16,17.17,8.84,19.97,19.22
		c4.02,14.9-3.85,30.68-18.95,36.32c-15.68,5.85-31.77,5.36-47.41-0.24c-11.13-3.99-19.44-17.93-18.22-29.17
		C1602.7,1294.18,1611.62,1293.63,1620.81,1293.07z"/>
	<path class="st1" d="M2274.47,1326.27c-9.33,0-18.48,0.12-27.61-0.14c-1.23-0.03-2.96-1.7-3.51-3c-1.66-3.94-1.71-9.75-4.55-11.69
		c-3.1-2.13-8.61-0.83-13.07-0.91c-4.99-0.08-10.01,0.25-14.98-0.1c-3.77-0.27-5.14,1.24-6.1,4.7
		c-3.12,11.19-3.27,11.14-14.98,11.14c-5.82,0-11.63,0-18.16,0c0.66-1.93,1.13-3.43,1.68-4.91c10.74-28.63,21.55-57.22,32.14-85.9
		c1.27-3.45,3.01-4.47,6.52-4.37c7.99,0.24,15.99-0.06,23.97,0.2c1.52,0.05,3.86,1.39,4.36,2.69c11.45,29.95,22.7,59.98,33.97,90.01
		C2274.37,1324.59,2274.34,1325.28,2274.47,1326.27z M2233.26,1289.84c-3.41-11.06-6.73-21.83-10.44-33.88
		c-3.65,12.07-6.88,22.75-10.24,33.88C2219.85,1289.84,2226.25,1289.84,2233.26,1289.84z"/>
	<path class="st1" d="M1248.68,1326.31c2.71-7.22,5.22-13.87,7.71-20.52c8.76-23.34,17.59-46.66,26.18-70.06
		c1.31-3.56,3.04-4.8,6.83-4.64c7.82,0.32,15.66,0.21,23.48,0.04c2.77-0.06,4.07,0.84,5.06,3.49
		c11.03,29.59,22.19,59.13,33.31,88.68c0.29,0.76,0.41,1.58,0.77,3c-9.76,0-19.18,0.05-28.59-0.08c-0.85-0.01-1.78-1.09-2.47-1.85
		c-0.4-0.44-0.37-1.25-0.57-1.89c-3.75-11.95-3.75-11.95-16.57-11.95c-5.33,0-10.67,0.14-15.99-0.05c-3.08-0.11-4.66,0.62-5.62,3.95
		c-3.44,11.95-3.6,11.9-15.95,11.9C1260.64,1326.31,1255,1326.31,1248.68,1326.31z M1289.92,1289.73c7.25,0,13.71,0,20.64,0
		c-3.44-11.13-6.73-21.81-10.41-33.74C1296.53,1267.95,1293.29,1278.61,1289.92,1289.73z"/>
	<path class="st1" d="M95.45,1026.74c-8.51,4.14-16.49,7.85-24.31,11.86c-15.91,8.16-30.97,17.66-43.68,30.37
		c-3.71,3.71-6.99,8.08-9.54,12.66c-5.08,9.11-4.13,17.24,4.04,23.68c6.79,5.35,14.62,9.95,22.7,12.99
		c18.17,6.85,37.43,9.45,56.68,10.98c27.51,2.19,55.09,3.54,83.62,5.31c0.55,2.98,1.38,7.47,2.47,13.4c-6.59,0-12.63,0.01-18.67,0
		c-38.36-0.1-76.52-2.6-114.14-10.53c-14.98-3.16-28.87-9.09-40.81-18.95c-15.06-12.43-17.95-29.13-7.91-45.86
		c6.61-11.01,15.29-20.39,25.99-27.26c16.08-10.31,32.82-19.58,49.25-29.33c2.42-1.43,4.26-1.15,6.05,1.08
		C89.68,1020.24,92.37,1023.18,95.45,1026.74z"/>
	<path class="st1" d="M157.22,899.73c-0.4,5.21-0.79,10.3-1.21,15.66c-11.46-3.55-22.35-7.17-33.38-10.27
		c-15.76-4.43-31.71-7.73-48.26-5.64c-17.26,2.18-25.14,12.63-21.17,29.54c1.73,7.34,5,14.45,8.4,21.24
		c11.92,23.8,29.35,43.5,47.61,62.5c4.01,4.18,8.66,7.74,11.83,10.54c-4.71,4.38-8.26,7.68-11.81,10.99
		c0.49,0.58,0.98,1.15,1.48,1.73c-0.54-0.34-1.17-0.59-1.6-1.03c-24.33-24.54-47.54-49.97-62.43-81.67c-3.3-7.02-6.09-14.46-7.82-22
		c-5.82-25.27,10-45.32,36.05-46.69c21.6-1.14,42.42,2.62,62.86,9.22C144.06,895.88,150.45,897.69,157.22,899.73z"/>
	<path class="st1" d="M1997.33,1231.44c9.72,0,19.12,0,29.06,0c0,23.76,0,47.29,0,71.33c15.45,0,30.37,0,45.62,0
		c0,7.92,0,15.33,0,23.13c-24.73,0-49.58,0-74.68,0C1997.33,1294.52,1997.33,1263.29,1997.33,1231.44z"/>
	<path class="st1" d="M935.87,1231.48c0,31.65,0,62.89,0,94.48c-9.64,0-19.18,0-28.99,0c0-31.48,0-62.84,0-94.48
		C916.48,1231.48,925.88,1231.48,935.87,1231.48z"/>
	<path class="st1" d="M158.97,1249.04c2.62,4.57,4.98,8.7,7.56,13.19c-13.52,6.08-27.05,12.98-42.98,10.18
		c-11.72-2.06-20.61-8.27-24.57-19.51c-2.72-7.72-5.05-16.1-4.99-24.16c0.2-25.16,5.11-49.58,15.09-72.83
		c2.67-6.22,9.35-8.96,15.22-5.84c0.99,0.53,1.47,3.81,0.86,5.27c-7.24,17.3-12.18,35.23-14.64,53.77
		c-1.13,8.54-1.92,17.3-1.34,25.85c1.28,18.81,16.08,27.8,33.59,21.05c4.03-1.55,7.89-3.55,11.84-5.3
		C156.08,1250.05,157.62,1249.55,158.97,1249.04z"/>
	<path class="st1" d="M166.91,839.71c0.1-9.6,5.78-15.18,15.3-15.02c9.31,0.15,15.88,6.38,15.81,15
		c-0.08,8.76-7.39,16.35-15.61,16.19C173.8,855.72,166.82,848.45,166.91,839.71z"/>
	<path class="st1" d="M130.01,1060.62c-9.06,0.06-14.99-6.43-14.9-16.3c0.08-8.3,7.08-15.18,15.4-15.14
		c8.22,0.04,15.29,7.98,15.3,17.19C145.83,1054.94,139.59,1060.56,130.01,1060.62z"/>
	<path class="st1" d="M146.53,1077.8c3.55,2.87,7.02,5.67,10.83,8.75c-7.11,13.16-14.05,26.14-21.15,39.03
		c-1.41,2.56-12.97,3.18-14.63,0.83c-0.62-0.88-0.77-2.73-0.27-3.66c8.03-14.86,16.2-29.64,24.34-44.43
		C145.73,1078.19,145.93,1078.14,146.53,1077.8z"/>
	<path class="st1" d="M165.7,1243.99c0.08-8.11,6.48-14.4,14.75-14.5c7.23-0.08,14.87,7.5,14.9,14.78c0.03,8-7.01,15.95-14.18,16
		C172.78,1260.33,165.62,1252.78,165.7,1243.99z"/>
	<path class="st2" d="M1642.39,164.58c6-9.63,11.68-18.75,18.08-29.02c5.6,15.85,2.81,30.85,2.07,46.92
		C1655.37,176.1,1648.91,170.37,1642.39,164.58z"/>
	<path class="st1" d="M2519.91,726.93c-4,0-7.74,0-11.47,0c-0.37-5.73,1.29-8.35,5.26-8.6
		C2517.94,718.07,2519.88,720.58,2519.91,726.93z"/>
	<path class="st1" d="M2190.53,726.59c-3.91,0-7.83,0-11.74,0c-0.42-5.41,1.64-8.46,5.67-8.55
		C2188.58,717.95,2190.51,720.57,2190.53,726.59z"/>
	<path class="st1" d="M2243.73,726.58c-3.92,0-7.82,0-11.71,0c-0.55-5.22,1.16-8.1,4.99-8.56
		C2241.25,717.52,2243.33,720.08,2243.73,726.58z"/>
	<path class="st1" d="M2296.5,726.59c-3.86,0-7.72,0-11.58,0c-0.04-6.01,1.79-8.63,5.82-8.62
		C2294.82,717.98,2296.56,720.51,2296.5,726.59z"/>
	<path class="st1" d="M2466.95,726.72c-4.14,0-7.87,0-11.56,0c-0.37-5.52,1.41-8.2,5.37-8.4
		C2464.93,718.12,2466.88,720.66,2466.95,726.72z"/>
	<path class="st1" d="M2401.73,726.62c0.26-5.01,1.64-8.47,6.68-8.18c4.72,0.28,5.76,3.73,5.7,8.18
		C2409.99,726.62,2405.97,726.62,2401.73,726.62z"/>
</g>
</svg>
